<?xml version="1.0" encoding="UTF-8" standalone="no"?>
<!-- Created with Inkscape (http://www.inkscape.org/) -->

<svg
   xmlns:dc="http://purl.org/dc/elements/1.1/"
   xmlns:cc="http://creativecommons.org/ns#"
   xmlns:rdf="http://www.w3.org/1999/02/22-rdf-syntax-ns#"
   xmlns:svg="http://www.w3.org/2000/svg"
   xmlns="http://www.w3.org/2000/svg"
   xmlns:sodipodi="http://sodipodi.sourceforge.net/DTD/sodipodi-0.dtd"
   xmlns:inkscape="http://www.inkscape.org/namespaces/inkscape"
   id="svg3352"
   version="1.1"
   inkscape:version="0.91 r13725"
   width="187.5"
   height="93.75"
   viewBox="0 0 187.5 93.75"
   sodipodi:docname="button_active.svg">
  <metadata
     id="metadata3358">
    <rdf:RDF>
      <cc:Work
         rdf:about="">
        <dc:format>image/svg+xml</dc:format>
        <dc:type
           rdf:resource="http://purl.org/dc/dcmitype/StillImage" />
        <dc:title></dc:title>
      </cc:Work>
    </rdf:RDF>
  </metadata>
  <defs
     id="defs3356" />
  <sodipodi:namedview
     pagecolor="#ffffff"
     bordercolor="#666666"
     borderopacity="1"
     objecttolerance="10"
     gridtolerance="10"
     guidetolerance="10"
     inkscape:pageopacity="0"
     inkscape:pageshadow="2"
     inkscape:window-width="2560"
     inkscape:window-height="1060"
     id="namedview3354"
     showgrid="false"
     fit-margin-top="0"
     fit-margin-left="0"
     fit-margin-right="0"
     fit-margin-bottom="0"
     inkscape:zoom="1.536"
     inkscape:cx="199.21875"
     inkscape:cy="54.036458"
     inkscape:window-x="-8"
     inkscape:window-y="-8"
     inkscape:window-maximized="1"
     inkscape:current-layer="svg3352" />
  <g
     id="g3362">
    <path
       style="fill:#434343"
       d="M 0,46.875 0,0 l 93.75,0 93.75,0 0,46.875 0,46.875 -93.75,0 -93.75,0 0,-46.875 z"
       id="path3366"
       inkscape:connector-curvature="0" />
    <path
       style="fill:#343434"
       d="m 0,89.53125 0,-4.21875 93.75,0 93.75,0 0,4.21875 0,4.21875 -93.75,0 -93.75,0 0,-4.21875 z m 41.25,-46.875 0,-10.78125 4.542199,0 c 3.209792,0 4.997331,0.502914 6.09375,1.714445 1.942561,2.146504 1.995289,5.187701 0.116973,6.746565 -1.272908,1.05642 -1.220083,1.390425 0.46875,2.963812 2.423746,2.258063 2.436077,5.854929 0.02833,8.262678 -1.375,1.375 -3.125,1.875 -6.5625,1.875 l -4.6875,0 0,-10.78125 z m 9.1875,7.78125 c 0.61875,-0.61875 1.125,-2.010937 1.125,-3.09375 0,-2.702515 -1.752094,-4.21875 -4.875,-4.21875 -2.486111,0 -2.625,0.223214 -2.625,4.21875 0,3.995536 0.138889,4.21875 2.625,4.21875 1.44375,0 3.13125,-0.50625 3.75,-1.125 z M 50.056897,39.140625 C 51.472989,36.879006 49.740381,34.303644 46.546067,33.922104 44.212416,33.643364 44.0625,33.859337 44.0625,37.5 c 0,3.640663 0.149916,3.856636 2.483567,3.577896 1.365962,-0.163155 2.945835,-1.034927 3.51083,-1.937271 z M 60.426136,51.136364 C 58.322151,49.032378 58.125,48.108691 58.125,40.355114 c 0,-6.912879 0.259893,-8.480114 1.40625,-8.480114 1.144008,0 1.40625,1.546356 1.40625,8.292199 0,8.887278 1.170705,11.395301 5.319143,11.395301 3.775098,0 4.993357,-2.81992 4.993357,-11.558195 0,-6.8195 0.241158,-8.129305 1.496747,-8.129305 1.289192,0 1.451696,1.246662 1.171875,8.990123 -0.293148,8.112241 -0.540994,9.165028 -2.538107,10.78125 -3.156567,2.554546 -8.120953,2.323416 -10.954379,-0.510009 z M 82.5,43.59375 l 0,-9.84375 -2.8125,0 c -1.546875,0 -2.8125,-0.421875 -2.8125,-0.9375 0,-0.541667 2.96875,-0.9375 7.03125,-0.9375 4.0625,0 7.03125,0.395833 7.03125,0.9375 0,0.515625 -1.265625,0.9375 -2.8125,0.9375 l -2.8125,0 0,9.84375 c 0,8.125 -0.245536,9.84375 -1.40625,9.84375 -1.160714,0 -1.40625,-1.71875 -1.40625,-9.84375 z m 15.9375,0 0,-9.84375 -2.8125,0 c -1.546875,0 -2.8125,-0.421875 -2.8125,-0.9375 0,-0.541667 2.968753,-0.9375 7.03125,-0.9375 4.0625,0 7.03125,0.395833 7.03125,0.9375 0,0.515625 -1.26562,0.9375 -2.8125,0.9375 l -2.8125,0 0,9.84375 c 0,8.125 -0.24553,9.84375 -1.40625,9.84375 -1.160719,0 -1.40625,-1.71875 -1.40625,-9.84375 z m 13.38296,6.539211 c -3.11247,-3.112472 -3.27749,-3.586022 -2.8392,-8.147447 0.94565,-9.841539 10.52441,-13.604845 17.32328,-6.805975 3.11247,3.112472 3.27749,3.586022 2.8392,8.147447 -0.94565,9.841539 -10.52441,13.604845 -17.32328,6.805975 z m 11.91859,-0.248081 c 2.55409,-2.06817 3.48232,-8.941497 1.67047,-12.369311 -1.47424,-2.78908 -5.16446,-4.265638 -8.54206,-3.417913 -2.74755,0.68959 -5.30496,4.81551 -5.30496,8.558594 0,2.86679 2.2641,7.594576 3.96465,8.278787 2.54595,1.024357 6.23213,0.55296 8.2119,-1.050157 z m 9.38595,-7.22863 c 0,-10.015939 0.1281,-10.78125 1.80455,-10.78125 1.29119,0 3.22473,2.466941 6.79687,8.671875 l 4.99233,8.671875 0.26956,-8.671875 c 0.21328,-6.861563 0.55577,-8.671875 1.64062,-8.671875 1.12361,0 1.37107,1.945867 1.37107,10.78125 0,9.752821 -0.16081,10.78125 -1.68576,10.78125 -1.14058,0 -3.41452,-2.947946 -7.03125,-9.115326 l -5.34549,-9.115324 0,9.115324 c 0,7.477512 -0.25268,9.115326 -1.40625,9.115326 -1.16848,0 -1.40625,-1.822916 -1.40625,-10.78125 z"
       id="path3364"
       inkscape:connector-curvature="0" />
  </g>
</svg>
