<?xml version="1.0" encoding="UTF-8" standalone="no"?>
<!-- Created with Inkscape (http://www.inkscape.org/) -->

<svg
   xmlns:dc="http://purl.org/dc/elements/1.1/"
   xmlns:cc="http://creativecommons.org/ns#"
   xmlns:rdf="http://www.w3.org/1999/02/22-rdf-syntax-ns#"
   xmlns:svg="http://www.w3.org/2000/svg"
   xmlns="http://www.w3.org/2000/svg"
   xmlns:sodipodi="http://sodipodi.sourceforge.net/DTD/sodipodi-0.dtd"
   xmlns:inkscape="http://www.inkscape.org/namespaces/inkscape"
   width="38.309464mm"
   height="16.118637mm"
   viewBox="0 0 135.74219 57.113281"
   id="svg2"
   version="1.1"
   inkscape:version="0.91 r13725"
   sodipodi:docname="grace.svg">
  <sodipodi:namedview
     id="base"
     pagecolor="#000000"
     bordercolor="#666666"
     borderopacity="1.0"
     inkscape:pageopacity="0"
     inkscape:pageshadow="2"
     inkscape:zoom="3.959798"
     inkscape:cx="9.9083154"
     inkscape:cy="44.106539"
     inkscape:document-units="px"
     inkscape:current-layer="layer2"
     showgrid="false"
     fit-margin-top="0"
     fit-margin-left="0"
     fit-margin-right="0"
     fit-margin-bottom="0"
     inkscape:window-width="2560"
     inkscape:window-height="1060"
     inkscape:window-x="-8"
     inkscape:window-y="-8"
     inkscape:window-maximized="1" />
  <defs
     id="defs4" />
  <metadata
     id="metadata7">
    <rdf:RDF>
      <cc:Work
         rdf:about="">
        <dc:format>image/svg+xml</dc:format>
        <dc:type
           rdf:resource="http://purl.org/dc/dcmitype/StillImage" />
        <dc:title></dc:title>
      </cc:Work>
    </rdf:RDF>
  </metadata>
  <g
     inkscape:groupmode="layer"
     id="layer2"
     inkscape:label="Layer 2"
     transform="translate(13.827937,-40.173831)">
    <path
       style="font-style:normal;font-weight:normal;font-size:40px;line-height:125%;font-family:sans-serif;letter-spacing:0px;word-spacing:0px;opacity:1;fill:#ffffff;fill-opacity:1;stroke:none;stroke-width:1px;stroke-linecap:butt;stroke-linejoin:miter;stroke-opacity:1"
       d="m 67.435547,40.173828 -10.585938,29.082031 3.925782,0 2.851562,-8.105468 12.578125,0 2.851563,8.105468 4.121093,0 -10.585937,-29.082031 -5.15625,0 z m 2.480469,3.378906 5.097656,14.277344 -10.214844,0 5.117188,-14.277344 z m -54.66211,9.171875 c -4.739583,0 -8.4700518,1.347657 -11.191406,4.042969 C 1.3541667,59.44987 0,63.115234 0,67.763672 c 0,2.539062 0.36458333,4.759114 1.09375,6.660156 0.7291667,1.888021 1.7643229,3.463542 3.1054688,4.726563 1.3281249,1.25 2.9361979,2.1875 4.8242187,2.8125 1.8880205,0.625 3.9648435,0.9375 6.2304685,0.9375 1.757813,0 3.574219,-0.266927 5.449219,-0.800782 1.888021,-0.546875 3.626302,-1.184895 5.214844,-1.914062 l 0,-12.480469 -11.621094,0 0,3.398438 7.792969,0 0,7.128906 c -0.9375,0.390625 -2.03125,0.709635 -3.28125,0.957031 -1.236979,0.247396 -2.480469,0.371094 -3.730469,0.371094 -3.411458,0 -6.1067708,-1.041667 -8.0859375,-3.125 -1.9791667,-2.096354 -2.96875,-5.026042 -2.96875,-8.789063 0,-3.567708 0.9440104,-6.393229 2.8320313,-8.476562 1.9010416,-2.096354 4.4791662,-3.144531 7.7343752,-3.144531 1.445312,0 2.734375,0.136718 3.867187,0.410156 1.145834,0.260417 2.167969,0.592448 3.066407,0.996094 0.742187,0.338541 1.497395,0.761718 2.265624,1.269531 0.76823,0.507812 1.354167,0.917969 1.757813,1.230469 l 0.351563,0 0,-4.589844 C 23.90625,54.391276 22.044271,53.720703 20.3125,53.330078 18.59375,52.926432 16.907552,52.724609 15.253906,52.724609 Z m 85.957034,0 c -2.135419,0 -4.082034,0.332032 -5.839846,0.996094 -1.744792,0.664063 -3.235677,1.627604 -4.472656,2.890625 -1.276042,1.302083 -2.252605,2.897136 -2.929688,4.785156 -0.677083,1.888021 -1.015625,4.029948 -1.015625,6.425782 0,2.526041 0.351563,4.746093 1.054687,6.660156 0.703126,1.901042 1.679688,3.470052 2.929688,4.707031 1.276042,1.263021 2.773438,2.194011 4.492188,2.792969 1.73177,0.585937 3.652343,0.878906 5.761722,0.878906 1.11979,0 2.14192,-0.09115 3.0664,-0.273437 0.9375,-0.169271 1.80339,-0.377605 2.59766,-0.625 0.9375,-0.29948 1.69271,-0.585938 2.26562,-0.859375 0.58594,-0.273438 1.23698,-0.566407 1.95313,-0.878907 l 0,-4.53125 -0.27344,0 c -1.41927,1.276042 -2.94271,2.233073 -4.57031,2.871094 -1.62761,0.638021 -3.3724,0.957031 -5.23438,0.957031 -1.354163,0 -2.643225,-0.227864 -3.867184,-0.683593 -1.210937,-0.46875 -2.272135,-1.184896 -3.183594,-2.148438 -0.872395,-0.924479 -1.588541,-2.122396 -2.148437,-3.59375 -0.546875,-1.471354 -0.820313,-3.229167 -0.820313,-5.273437 0,-1.953125 0.247396,-3.671875 0.742188,-5.15625 0.507812,-1.497396 1.210938,-2.734375 2.109375,-3.710938 0.924479,-1.002604 1.972656,-1.738281 3.144531,-2.207031 1.184896,-0.481771 2.513021,-0.722656 3.984374,-0.722656 1.79688,0 3.48307,0.305989 5.05859,0.917968 1.57553,0.61198 3.16407,1.588542 4.76563,2.929688 l 0.29297,0 0,-4.589844 c -1.90104,-0.950521 -3.63281,-1.614583 -5.19531,-1.992187 -1.54948,-0.377605 -3.10547,-0.566407 -4.66797,-0.566407 z m -68.535159,0.527344 0,29.082031 3.867188,0 0,-11.5625 5.449219,0 9.726562,11.5625 5.019531,0 -10.9375,-12.714843 c 1.848959,-0.716146 3.300781,-1.777344 4.355469,-3.183594 1.054688,-1.419271 1.582031,-3.177083 1.582031,-5.273438 0,-1.549479 -0.299479,-2.82552 -0.898437,-3.828125 -0.585938,-1.015625 -1.40625,-1.855468 -2.460938,-2.519531 -0.9375,-0.585937 -1.992187,-0.989583 -3.164062,-1.210937 -1.171875,-0.234375 -2.636719,-0.351563 -4.394532,-0.351563 l -8.144531,0 z m 83.906249,0 0,29.082031 19.16016,0 0,-3.4375 -15.29297,0 0,-10.800781 15.29297,0 0,-3.4375 -15.29297,0 0,-7.96875 15.29297,0 0,-3.4375 -19.16016,0 z m -80.039061,3.320313 4.550781,0 c 1.041667,0 1.946615,0.07813 2.714844,0.234375 0.768229,0.143229 1.432291,0.403645 1.992187,0.78125 0.677084,0.442708 1.158854,0.989583 1.445313,1.640625 0.299479,0.63802 0.449218,1.373698 0.449218,2.207031 0,1.09375 -0.143229,1.998698 -0.429687,2.714844 -0.273437,0.703125 -0.703125,1.328125 -1.289063,1.875 -0.63802,0.585937 -1.41276,0.989583 -2.324218,1.210937 -0.911459,0.208333 -1.979167,0.3125 -3.203125,0.3125 l -3.90625,0 0,-10.976562 z m 20.263672,15.71289 6.523437,12.501953 6.523438,12.5 6.521484,-12.5 6.523438,-12.501953 -13.044922,0 -13.046875,0 z"
       transform="translate(-13.827945,2.6171875e-6)"
       id="flowRoot4144-5"
       inkscape:connector-curvature="0" />
  </g>
</svg>
